<svg width="40" height="41" viewBox="0 0 40 41" fill="none" xmlns="http://www.w3.org/2000/svg">
<g clip-path="url(#clip0_14_544)">
<path d="M30 3.7085C30.4082 3.70855 30.8022 3.85842 31.1073 4.12969C31.4123 4.40095 31.6072 4.77474 31.655 5.18016L31.6667 5.37516V12.0418C31.6666 12.4501 31.5167 12.8441 31.2455 13.1491C30.9742 13.4542 30.6004 13.6491 30.195 13.6968L30 13.7085H25V15.3752H30C30.2373 15.3753 30.4718 15.426 30.6878 15.524C30.9039 15.622 31.0965 15.765 31.2529 15.9435C31.4093 16.1219 31.5257 16.3317 31.5945 16.5587C31.6633 16.7858 31.6827 17.025 31.6517 17.2602L31.6183 17.4468L29.9517 24.1135C29.8689 24.4427 29.6877 24.7387 29.4321 24.9621C29.1766 25.1855 28.8589 25.3255 28.5217 25.3635L28.3333 25.3752H25V35.3752C24.9999 35.7834 24.8501 36.1774 24.5788 36.4824C24.3075 36.7875 23.9338 36.9824 23.5283 37.0302L23.3333 37.0418H16.6667C16.2584 37.0418 15.8644 36.8919 15.5594 36.6206C15.2543 36.3494 15.0594 35.9756 15.0117 35.5702L15 35.3752V25.3752H11.6667C11.2584 25.3751 10.8644 25.2252 10.5594 24.954C10.2543 24.6827 10.0594 24.3089 10.0117 23.9035L10 23.7085V17.0418C10.0001 16.6336 10.1499 16.2396 10.4212 15.9345C10.6925 15.6295 11.0662 15.4346 11.4717 15.3868L11.6667 15.3752H15V13.7085C14.9999 11.1212 16.0026 8.63456 17.7974 6.77104C19.5923 4.90752 22.0395 3.81219 24.625 3.71516L25 3.7085H30Z" fill="#262626"/>
</g>
<defs>
<clipPath id="clip0_14_544">
<rect width="40" height="40" fill="white" transform="translate(0 0.375)"/>
</clipPath>
</defs>
</svg>
