<svg width="40" height="41" viewBox="0 0 40 41" fill="none" xmlns="http://www.w3.org/2000/svg">
<g clip-path="url(#clip0_14_538)">
<path d="M26.6667 5.375C28.8768 5.375 30.9964 6.25297 32.5592 7.81578C34.122 9.37858 35 11.4982 35 13.7083V27.0417C35 29.2518 34.122 31.3714 32.5592 32.9342C30.9964 34.497 28.8768 35.375 26.6667 35.375H13.3333C11.1232 35.375 9.00358 34.497 7.44078 32.9342C5.87797 31.3714 5 29.2518 5 27.0417V13.7083C5 11.4982 5.87797 9.37858 7.44078 7.81578C9.00358 6.25297 11.1232 5.375 13.3333 5.375H26.6667ZM20 13.7083C18.2896 13.7083 16.6446 14.3657 15.4053 15.5445C14.166 16.7234 13.4272 18.3334 13.3417 20.0417L13.3333 20.375C13.3333 21.6935 13.7243 22.9825 14.4569 24.0788C15.1894 25.1751 16.2306 26.0296 17.4488 26.5342C18.667 27.0388 20.0074 27.1708 21.3006 26.9136C22.5938 26.6563 23.7817 26.0214 24.714 25.089C25.6464 24.1567 26.2813 22.9688 26.5386 21.6756C26.7958 20.3824 26.6638 19.042 26.1592 17.8238C25.6546 16.6056 24.8001 15.5644 23.7038 14.8319C22.6075 14.0993 21.3185 13.7083 20 13.7083ZM27.5 11.2083C27.0918 11.2084 26.6978 11.3583 26.3927 11.6295C26.0877 11.9008 25.8928 12.2746 25.845 12.68L25.8333 12.8917C25.8338 13.3165 25.9965 13.7251 26.2881 14.0339C26.5797 14.3428 26.9783 14.5287 27.4023 14.5536C27.8264 14.5785 28.244 14.4405 28.5697 14.1679C28.8955 13.8952 29.1048 13.5085 29.155 13.0867L29.1667 12.875C29.1667 12.433 28.9911 12.009 28.6785 11.6965C28.366 11.3839 27.942 11.2083 27.5 11.2083Z" fill="#262626"/>
</g>
<defs>
<clipPath id="clip0_14_538">
<rect width="40" height="40" fill="white" transform="translate(0 0.375)"/>
</clipPath>
</defs>
</svg>
