<svg width="40" height="41" viewBox="0 0 40 41" fill="none" xmlns="http://www.w3.org/2000/svg">
<g clip-path="url(#clip0_14_541)">
<path d="M26.805 3.7085H20C19.558 3.7085 19.1341 3.88409 18.8215 4.19665C18.5089 4.50921 18.3333 4.93314 18.3333 5.37516V24.5418C18.3336 24.9571 18.2303 25.3659 18.033 25.7312C17.8356 26.0966 17.5504 26.407 17.203 26.6345C16.8556 26.862 16.457 26.9994 16.0432 27.0343C15.6294 27.0691 15.2134 27.0003 14.8329 26.8342C14.4523 26.668 14.1192 26.4096 13.8635 26.0824C13.6078 25.7552 13.4376 25.3695 13.3684 24.96C13.2991 24.5506 13.3329 24.1303 13.4668 23.7373C13.6006 23.3442 13.8303 22.9906 14.135 22.7085L14.335 22.5418C14.5417 22.3864 14.7094 22.185 14.8248 21.9536C14.9402 21.7222 15.0002 21.4671 15 21.2085V13.9985C15.0002 13.7469 14.9435 13.4986 14.834 13.272C14.7246 13.0455 14.5652 12.8467 14.368 12.6905C14.1708 12.5344 13.9408 12.4248 13.6952 12.3702C13.4496 12.3156 13.1948 12.3173 12.95 12.3752C9.96514 13.0786 7.34302 14.8548 5.58249 17.3657C3.82197 19.8767 3.0459 22.9472 3.40195 25.9931C3.75799 29.039 5.22129 31.8478 7.51346 33.885C9.80563 35.9222 12.7667 37.0457 15.8333 37.0418L16.2383 37.0335C19.4814 36.9284 22.5565 35.5663 24.8136 33.2352C27.0707 30.904 28.3329 27.7866 28.3333 24.5418V20.0418L28.8517 20.2968C30.7217 21.1802 32.74 21.7435 34.835 21.9518C35.0668 21.9749 35.3008 21.9491 35.522 21.8762C35.7432 21.8032 35.9467 21.6847 36.1192 21.5283C36.2918 21.3719 36.4297 21.1811 36.524 20.9681C36.6183 20.7551 36.6669 20.5247 36.6667 20.2918V13.5702C36.6666 13.1761 36.527 12.7949 36.2725 12.494C36.0181 12.1932 35.6652 11.9922 35.2767 11.9268C33.5711 11.6374 31.9978 10.825 30.7744 9.60188C29.551 8.3788 28.7382 6.80562 28.4483 5.10016C28.3833 4.7113 28.1825 4.35809 27.8816 4.10329C27.5807 3.8485 27.1993 3.70861 26.805 3.7085Z" fill="#262626"/>
</g>
<defs>
<clipPath id="clip0_14_541">
<rect width="40" height="40" fill="white" transform="translate(0 0.375)"/>
</clipPath>
</defs>
</svg>
