<svg  viewBox="0 0 18 19" fill="none" xmlns="http://www.w3.org/2000/svg">
<path fill-rule="evenodd" clip-rule="evenodd" d="M1.09725 9.594C0.81 9.81525 0.444 9.9315 0 9.945V10.6275H1.53825V15.7493H2.4795V8.739H1.6365C1.56948 9.0812 1.37719 9.38609 1.09725 9.594ZM8.36475 11.8193C8.15901 11.6142 7.9117 11.4556 7.6395 11.3542C7.20942 11.1945 6.74499 11.1503 6.2925 11.226C6.01745 11.2713 5.75411 11.3707 5.51775 11.5185C5.40075 11.5898 5.2995 11.676 5.214 11.775L5.66475 9.63H8.67375V8.739H5.00775L4.25325 12.3278L5.1255 12.654C5.28897 12.4446 5.49867 12.2758 5.73821 12.1609C5.97774 12.0461 6.24061 11.9881 6.50625 11.9918C6.729 11.9918 6.933 12.0262 7.11825 12.0953C7.305 12.1642 7.46625 12.2655 7.60425 12.396C7.7415 12.5287 7.84875 12.6885 7.92675 12.876C8.0055 13.0635 8.04525 13.2802 8.04525 13.524C8.04525 13.7415 8.00775 13.9425 7.93275 14.127C7.85775 14.3123 7.75275 14.472 7.61925 14.607C7.48425 14.742 7.32375 14.8455 7.134 14.9183C6.93336 14.9923 6.72084 15.0289 6.507 15.0262C6.279 15.0262 6.07275 14.9888 5.88975 14.913C5.71235 14.8409 5.54966 14.737 5.40975 14.6063C5.27134 14.4762 5.15974 14.3202 5.08125 14.1473C4.99917 13.9691 4.9477 13.7785 4.929 13.5833L4.0575 13.8007C4.10752 14.3639 4.37264 14.8861 4.79775 15.2587C5.01 15.4462 5.262 15.5962 5.55225 15.7087C5.84325 15.8212 6.16125 15.8775 6.50775 15.8775C6.89325 15.8775 7.23975 15.8145 7.5465 15.69C7.854 15.5647 8.115 15.3945 8.331 15.1807C8.54625 14.9662 8.71125 14.7158 8.826 14.4293C8.94 14.1427 8.99775 13.8375 8.99775 13.5142C8.99775 13.1587 8.94225 12.837 8.83125 12.5497C8.72786 12.2764 8.56903 12.0275 8.36475 11.8185V11.8193ZM11.2192 4.149H5.94225V2.4375L2.352 4.52925L5.94225 6.62175V4.90875H11.2192C14.1292 4.90875 16.4963 7.21125 16.4963 10.0425C16.4963 12.873 14.1292 15.1763 11.2192 15.1763V15.9375C14.5448 15.9375 17.25 13.293 17.25 10.0425C17.25 6.7935 14.5448 4.149 11.22 4.149H11.2192Z" fill="currentColor" fill-opacity="0.5"/>
</svg>
