<svg width="25" height="24" viewBox="0 0 25 24" fill="none" xmlns="http://www.w3.org/2000/svg">
<path d="M11.7223 22V19.6111C10.7156 19.3889 9.84667 18.963 9.11542 18.3333C8.38418 17.7037 7.84762 16.8148 7.50574 15.6667L9.614 14.8333C9.8989 15.7222 10.3215 16.3981 10.8818 16.8611C11.4421 17.3241 12.1781 17.5556 13.0898 17.5556C13.8685 17.5556 14.5285 17.3843 15.0698 17.0417C15.6111 16.6991 15.8818 16.1667 15.8818 15.4444C15.8818 14.7963 15.6729 14.2824 15.255 13.9028C14.8372 13.5231 13.8685 13.0926 12.349 12.6111C10.7156 12.1111 9.59501 11.5139 8.98722 10.8194C8.37943 10.125 8.07554 9.27778 8.07554 8.27778C8.07554 7.07407 8.4744 6.13889 9.27212 5.47222C10.0698 4.80556 10.8866 4.42593 11.7223 4.33333V2H14.0015V4.33333C14.9511 4.48148 15.7346 4.81944 16.3519 5.34722C16.9692 5.875 17.4203 6.51852 17.7052 7.27778L15.5969 8.16667C15.369 7.57407 15.0461 7.12963 14.6282 6.83333C14.2104 6.53704 13.6406 6.38889 12.9188 6.38889C12.0831 6.38889 11.4469 6.56944 11.01 6.93056C10.5732 7.29167 10.3547 7.74074 10.3547 8.27778C10.3547 8.88889 10.6396 9.37037 11.2094 9.72222C11.7792 10.0741 12.7669 10.4444 14.1724 10.8333C15.4829 11.2037 16.4753 11.7917 17.1496 12.5972C17.8239 13.4028 18.161 14.3333 18.161 15.3889C18.161 16.7037 17.7621 17.7037 16.9644 18.3889C16.1667 19.0741 15.1791 19.5 14.0015 19.6667V22H11.7223Z" fill="currentColor"/>
</svg>
