<svg width="24" height="24" viewBox="0 0 24 24" fill="none" xmlns="http://www.w3.org/2000/svg">
<path d="M16.6 0C16.8939 3.87727e-05 17.1776 0.107947 17.3972 0.303258C17.6169 0.498569 17.7572 0.767699 17.7916 1.0596L17.8 1.2V2.4H19C19.9183 2.39995 20.8018 2.75079 21.4699 3.38074C22.138 4.01069 22.5401 4.87213 22.594 5.7888L22.6 6V20.4C22.6001 21.3183 22.2492 22.2018 21.6193 22.8699C20.9893 23.538 20.1279 23.9401 19.2112 23.994L19 24H4.6C3.68175 24.0001 2.79818 23.6492 2.13009 23.0193C1.46199 22.3893 1.05987 21.5279 1.006 20.6112L1 20.4V6C0.999949 5.08175 1.35079 4.19818 1.98074 3.53009C2.61069 2.86199 3.47213 2.45987 4.3888 2.406L4.6 2.4H5.8V1.2C5.80034 0.894144 5.91745 0.599961 6.12742 0.377558C6.33738 0.155155 6.62434 0.021318 6.92967 0.00339346C7.235 -0.0145311 7.53566 0.0848095 7.7702 0.281118C8.00474 0.477426 8.15548 0.755885 8.1916 1.0596L8.2 1.2V2.4H15.4V1.2C15.4 0.88174 15.5264 0.576515 15.7515 0.351472C15.9765 0.126428 16.2817 0 16.6 0ZM20.2 8.4H3.4V19.95C3.4 20.796 3.8632 21.4932 4.4596 21.5892L4.6 21.6H19C19.6156 21.6 20.1232 20.964 20.1916 20.142L20.2 19.95V8.4Z" fill="currentColor"/>
<path d="M11.8 12C12.094 12 12.3776 12.1079 12.5973 12.3033C12.8169 12.4986 12.9572 12.7677 12.9916 13.0596L13 13.2V16.8C12.9997 17.1059 12.8826 17.4 12.6726 17.6224C12.4627 17.8448 12.1757 17.9787 11.8704 17.9966C11.565 18.0145 11.2644 17.9152 11.0298 17.7189C10.7953 17.5226 10.6446 17.2441 10.6084 16.9404L10.6 16.8V14.4C10.2942 14.3997 10 14.2825 9.7776 14.0726C9.55519 13.8626 9.42136 13.5757 9.40343 13.2703C9.38551 12.965 9.48485 12.6643 9.68116 12.4298C9.87746 12.1953 10.1559 12.0445 10.4596 12.0084L10.6 12H11.8Z" fill="currentColor"/>
</svg>
