<svg  viewBox="0 0 24 24" fill="none" xmlns="http://www.w3.org/2000/svg">
<g clip-path="url(#clip0_111_2459)">
<path d="M16 2C16.183 2 16.355 2.05 16.502 2.135L16.535 2.155C16.815 2.332 17 2.645 17 3V4H18C18.7652 3.99996 19.5015 4.29233 20.0583 4.81728C20.615 5.34224 20.9501 6.06011 20.995 6.824L21 7V19C21 19.7652 20.7077 20.5015 20.1827 21.0583C19.6578 21.615 18.9399 21.9501 18.176 21.995L18 22H6C5.23479 22 4.49849 21.7077 3.94174 21.1827C3.38499 20.6578 3.04989 19.9399 3.005 19.176L3 19V7C2.99996 6.23479 3.29233 5.49849 3.81728 4.94174C4.34224 4.38499 5.06011 4.04989 5.824 4.005L6 4H7V3C6.99999 2.82173 7.04764 2.64669 7.13802 2.49302C7.22839 2.33936 7.3582 2.21264 7.514 2.126L7.607 2.08L7.673 2.055L7.773 2.026L7.88 2.007L8 2C8.05533 2 8.109 2.00433 8.161 2.013L8.283 2.042L8.323 2.054L8.383 2.077C8.711 2.212 8.951 2.517 8.993 2.883L9 3V4H15V3C15 2.73478 15.1054 2.48043 15.2929 2.29289C15.4804 2.10536 15.7348 2 16 2ZM19 9H5V18.625C5 19.33 5.386 19.911 5.883 19.991L6 20H18C18.513 20 18.936 19.47 18.993 18.785L19 18.625V9Z" fill="currentColor"/>
<path d="M9.01496 13.0009C9.01496 13.2661 8.9096 13.5205 8.72207 13.708C8.53453 13.8955 8.28018 14.0009 8.01496 14.0009C7.8799 14.0073 7.74494 13.9862 7.61824 13.939C7.49154 13.8918 7.37572 13.8194 7.27776 13.7262C7.17981 13.633 7.10176 13.5209 7.04831 13.3967C6.99487 13.2725 6.96714 13.1387 6.9668 13.0035C6.96646 12.8683 6.99352 12.7344 7.04634 12.6099C7.09917 12.4855 7.17666 12.373 7.27415 12.2793C7.37163 12.1856 7.48709 12.1126 7.61356 12.0648C7.74002 12.0169 7.87487 11.9952 8.00996 12.0009C8.56696 12.0009 9.01496 12.4489 9.01496 13.0009Z" fill="currentColor"/>
<path d="M13.015 13.0009C13.015 13.2661 12.9096 13.5205 12.7221 13.708C12.5345 13.8955 12.2802 14.0009 12.015 14.0009C11.8799 14.0073 11.7449 13.9862 11.6182 13.939C11.4915 13.8918 11.3757 13.8194 11.2778 13.7262C11.1798 13.633 11.1018 13.5209 11.0483 13.3967C10.9949 13.2725 10.9671 13.1387 10.9668 13.0035C10.9665 12.8683 10.9935 12.7344 11.0463 12.6099C11.0992 12.4855 11.1767 12.373 11.2741 12.2793C11.3716 12.1856 11.4871 12.1126 11.6136 12.0648C11.74 12.0169 11.8749 11.9952 12.01 12.0009C12.567 12.0009 13.015 12.4489 13.015 13.0009Z" fill="currentColor"/>
<path d="M17.0201 13.0009C17.0201 13.2661 16.9147 13.5205 16.7272 13.708C16.5397 13.8955 16.2853 14.0009 16.0201 14.0009C15.885 14.0073 15.7501 13.9862 15.6234 13.939C15.4967 13.8918 15.3808 13.8194 15.2829 13.7262C15.1849 13.633 15.1069 13.5209 15.0534 13.3967C15 13.2725 14.9723 13.1387 14.9719 13.0035C14.9716 12.8683 14.9986 12.7344 15.0515 12.6099C15.1043 12.4855 15.1818 12.373 15.2793 12.2793C15.3768 12.1856 15.4922 12.1126 15.6187 12.0648C15.7451 12.0169 15.88 11.9952 16.0151 12.0009C16.5721 12.0009 17.0201 12.4489 17.0201 13.0009Z" fill="currentColor"/>
<path d="M12.0201 15.0009C12.2853 15.0009 12.5397 15.1062 12.7272 15.2938C12.9147 15.4813 13.0201 15.7357 13.0201 16.0009C13.0201 16.2661 12.9147 16.5205 12.7272 16.708C12.5397 16.8955 12.2853 17.0009 12.0201 17.0009C11.885 17.0073 11.7501 16.9862 11.6234 16.939C11.4967 16.8918 11.3808 16.8194 11.2829 16.7262C11.1849 16.633 11.1069 16.5209 11.0534 16.3967C11 16.2725 10.9723 16.1387 10.9719 16.0035C10.9716 15.8683 10.9986 15.7344 11.0515 15.6099C11.1043 15.4855 11.1818 15.373 11.2793 15.2793C11.3768 15.1856 11.4922 15.1126 11.6187 15.0648C11.7451 15.0169 11.88 14.9952 12.0151 15.0009H12.0201Z" fill="currentColor"/>
<path d="M9.01496 16.0009C9.01496 16.2661 8.9096 16.5205 8.72207 16.708C8.53453 16.8955 8.28018 17.0009 8.01496 17.0009C7.8799 17.0073 7.74494 16.9862 7.61824 16.939C7.49154 16.8918 7.37572 16.8194 7.27776 16.7262C7.17981 16.633 7.10176 16.5209 7.04831 16.3967C6.99487 16.2725 6.96714 16.1387 6.9668 16.0035C6.96646 15.8683 6.99352 15.7344 7.04634 15.6099C7.09917 15.4855 7.17666 15.373 7.27415 15.2793C7.37163 15.1856 7.48709 15.1126 7.61356 15.0648C7.74002 15.0169 7.87487 14.9952 8.00996 15.0009C8.56696 15.0009 9.01496 15.4489 9.01496 16.0009Z" fill="currentColor"/>
</g>
<defs>
<clipPath id="clip0_111_2459">
<rect width="24" height="24" fill="white"/>
</clipPath>
</defs>
</svg>
