<svg width="25" height="24" viewBox="0 0 25 24" fill="none" xmlns="http://www.w3.org/2000/svg">
<g clip-path="url(#clip0_799_525)">
<path d="M9.1111 4.22266H6.88893C6.29957 4.22266 5.73435 4.45678 5.31761 4.87352C4.90087 5.29026 4.66675 5.85548 4.66675 6.44483V19.7779C4.66675 20.3673 4.90087 20.9325 5.31761 21.3492C5.73435 21.766 6.29957 22.0001 6.88893 22.0001H17.9998C18.5892 22.0001 19.1544 21.766 19.5711 21.3492C19.9879 20.9325 20.222 20.3673 20.222 19.7779V6.44483C20.222 5.85548 19.9879 5.29026 19.5711 4.87352C19.1544 4.45678 18.5892 4.22266 17.9998 4.22266H15.7776" stroke="#6E7684" stroke-width="2" stroke-linecap="round" stroke-linejoin="round"/>
<path d="M9.11108 4.22218C9.11108 3.63282 9.34521 3.0676 9.76194 2.65086C10.1787 2.23412 10.7439 2 11.3333 2H13.5554C14.1448 2 14.71 2.23412 15.1268 2.65086C15.5435 3.0676 15.7776 3.63282 15.7776 4.22218C15.7776 4.81154 15.5435 5.37675 15.1268 5.79349C14.71 6.21023 14.1448 6.44435 13.5554 6.44435H11.3333C10.7439 6.44435 10.1787 6.21023 9.76194 5.79349C9.34521 5.37675 9.11108 4.81154 9.11108 4.22218Z" stroke="#6E7684" stroke-width="2" stroke-linecap="round" stroke-linejoin="round"/>
<path d="M9.11108 12H15.7776" stroke="#6E7684" stroke-width="2" stroke-linecap="round" stroke-linejoin="round"/>
<path d="M9.11108 16.4443H15.7776" stroke="#6E7684" stroke-width="2" stroke-linecap="round" stroke-linejoin="round"/>
</g>
<defs>
<clipPath id="clip0_799_525">
<rect width="24" height="24" fill="white" transform="translate(0.666748)"/>
</clipPath>
</defs>
</svg>
