<svg  viewBox="0 0 18 19" fill="none" xmlns="http://www.w3.org/2000/svg">
<path fill-rule="evenodd" clip-rule="evenodd" d="M7.42275 4.8855H12.6053V6.5805L16.1302 4.50975L12.606 2.4375V4.1325H7.4235C4.15725 4.1325 1.5 6.7515 1.5 9.96975C1.5 13.188 4.15725 15.807 7.42275 15.807V15.054C4.56525 15.054 2.24025 12.7733 2.24025 9.96975C2.24025 7.16625 4.56525 4.8855 7.42275 4.8855ZM9.4905 9.714C9.2085 9.9315 8.84925 10.0477 8.41275 10.0605V10.7362H9.924V15.8085H10.848V8.8665H10.02C9.9495 9.213 9.7725 9.495 9.4905 9.714ZM17.0842 12.6412C16.9834 12.3708 16.8276 12.1241 16.6268 11.9167C16.4252 11.7138 16.1821 11.5567 15.9142 11.4562C15.6176 11.3458 15.303 11.2914 14.9865 11.2957C14.8583 11.2957 14.7262 11.307 14.5912 11.3295C14.3219 11.3758 14.0639 11.4736 13.8315 11.6175C13.7194 11.6865 13.6187 11.7725 13.533 11.8725L13.9755 9.74775H16.9305V8.8665H13.3305L12.5895 12.4207L13.446 12.7432C13.5983 12.5435 13.7943 12.3814 14.019 12.2692C14.253 12.1477 14.514 12.0877 14.8035 12.0877C15.021 12.0877 15.222 12.1223 15.4042 12.1912C15.5837 12.257 15.7472 12.3598 15.8842 12.4931C16.0212 12.6263 16.1286 12.787 16.1993 12.9645C16.2758 13.1505 16.314 13.3643 16.314 13.6065C16.314 13.8217 16.2772 14.0205 16.2037 14.2035C16.134 14.3807 16.0294 14.5421 15.8962 14.6782C15.7615 14.8142 15.599 14.9195 15.42 14.9872C15.2231 15.0607 15.0144 15.0971 14.8043 15.0945C14.5793 15.0945 14.3767 15.057 14.1975 14.982C14.0175 14.907 13.8608 14.8065 13.7265 14.679C13.5905 14.5496 13.4809 14.395 13.404 14.2238C13.3235 14.0473 13.2728 13.8588 13.254 13.6657L12.3983 13.881C12.4472 14.4378 12.7072 14.9549 13.125 15.3263C13.3335 15.5122 13.5803 15.66 13.866 15.771C14.1518 15.882 14.4645 15.9375 14.805 15.9375C15.1539 15.9427 15.5004 15.8796 15.825 15.7515C16.1265 15.627 16.383 15.459 16.5945 15.2467C16.8067 15.0353 16.9688 14.787 17.0812 14.5028C17.1942 14.2141 17.2515 13.9067 17.25 13.5968C17.2529 13.2709 17.1967 12.9471 17.0842 12.6412Z" fill="currentColor" fill-opacity="0.5"/>
</svg>
