<svg width="25" height="24" viewBox="0 0 25 24" fill="none" xmlns="http://www.w3.org/2000/svg">
<path d="M12.6667 12C13.2134 12 13.6814 11.8042 14.0708 11.4125C14.4601 11.0208 14.6548 10.55 14.6548 10C14.6548 9.45 14.4601 8.97917 14.0708 8.5875C13.6814 8.19583 13.2134 8 12.6667 8C12.1199 8 11.6519 8.19583 11.2625 8.5875C10.8732 8.97917 10.6785 9.45 10.6785 10C10.6785 10.55 10.8732 11.0208 11.2625 11.4125C11.6519 11.8042 12.1199 12 12.6667 12ZM12.6667 19.35C14.688 17.4833 16.1874 15.7875 17.1649 14.2625C18.1424 12.7375 18.6311 11.3833 18.6311 10.2C18.6311 8.38333 18.0554 6.89583 16.9039 5.7375C15.7524 4.57917 14.34 4 12.6667 4C10.9933 4 9.58085 4.57917 8.42937 5.7375C7.27789 6.89583 6.70215 8.38333 6.70215 10.2C6.70215 11.3833 7.19091 12.7375 8.16843 14.2625C9.14594 15.7875 10.6453 17.4833 12.6667 19.35ZM12.6667 22C9.9992 19.7167 8.00689 17.5958 6.68973 15.6375C5.37257 13.6792 4.71399 11.8667 4.71399 10.2C4.71399 7.7 5.5134 5.70833 7.11221 4.225C8.71103 2.74167 10.5625 2 12.6667 2C14.7708 2 16.6223 2.74167 18.2211 4.225C19.8199 5.70833 20.6193 7.7 20.6193 10.2C20.6193 11.8667 19.9607 13.6792 18.6436 15.6375C17.3264 17.5958 15.3341 19.7167 12.6667 22Z" fill="currentColor"/>
</svg>
