<svg  viewBox="0 0 40 41" fill="none" xmlns="http://www.w3.org/2000/svg">
<g clip-path="url(#clip0_21_619)">
<path d="M29.9998 5.4375C31.0942 5.4375 32.1778 5.65305 33.1889 6.07184C34.1999 6.49063 35.1186 7.10446 35.8924 7.87828C36.6662 8.6521 37.28 9.57076 37.6988 10.5818C38.1176 11.5929 38.3332 12.6765 38.3332 13.7708V27.1042C38.3332 28.1985 38.1176 29.2821 37.6988 30.2932C37.28 31.3042 36.6662 32.2229 35.8924 32.9967C35.1186 33.7705 34.1999 34.3844 33.1889 34.8032C32.1778 35.222 31.0942 35.4375 29.9998 35.4375H9.99984C8.90549 35.4375 7.82186 35.222 6.81081 34.8032C5.79976 34.3844 4.8811 33.7705 4.10728 32.9967C2.54448 31.4339 1.6665 29.3143 1.6665 27.1042V13.7708C1.6665 11.5607 2.54448 9.44108 4.10728 7.87828C5.67008 6.31547 7.7897 5.4375 9.99984 5.4375H29.9998ZM14.9998 15.4375V25.4375C15.0001 25.7322 15.0785 26.0217 15.227 26.2762C15.3756 26.5308 15.589 26.7414 15.8455 26.8866C16.102 27.0318 16.3924 27.1064 16.6871 27.1027C16.9819 27.0991 17.2703 27.0173 17.5232 26.8658L25.8565 21.8658C26.1029 21.7177 26.3068 21.5083 26.4484 21.258C26.5899 21.0077 26.6643 20.725 26.6643 20.4375C26.6643 20.15 26.5899 19.8673 26.4484 19.617C26.3068 19.3667 26.1029 19.1573 25.8565 19.0092L17.5232 14.0092C17.2703 13.8577 16.9819 13.7759 16.6871 13.7723C16.3924 13.7686 16.102 13.8432 15.8455 13.9884C15.589 14.1336 15.3756 14.3442 15.227 14.5988C15.0785 14.8533 15.0001 15.1428 14.9998 15.4375Z" fill="currentColor"/>
</g>
<defs>
<clipPath id="clip0_21_619">
<rect width="40" height="40" fill="currentColor" transform="translate(0 0.4375)"/>
</clipPath>
</defs>
</svg>
