<svg  viewBox="0 0 24 24" fill="none" xmlns="http://www.w3.org/2000/svg">
<path d="M4.12517 10.25C4.12517 11.0543 4.2836 11.8508 4.59141 12.5939C4.89922 13.3371 5.35038 14.0123 5.91914 14.581C6.4879 15.1498 7.16311 15.601 7.90623 15.9088C8.64935 16.2166 9.44582 16.375 10.2502 16.375C11.0545 16.375 11.851 16.2166 12.5941 15.9088C13.3372 15.601 14.0124 15.1498 14.5812 14.581C15.15 14.0123 15.6011 13.3371 15.9089 12.5939C16.2167 11.8508 16.3752 11.0543 16.3752 10.25C16.3752 9.44565 16.2167 8.64918 15.9089 7.90606C15.6011 7.16294 15.15 6.48773 14.5812 5.91897C14.0124 5.35021 13.3372 4.89905 12.5941 4.59124C11.851 4.28343 11.0545 4.125 10.2502 4.125C9.44582 4.125 8.64935 4.28343 7.90623 4.59124C7.16311 4.89905 6.4879 5.35021 5.91914 5.91897C5.35038 6.48773 4.89922 7.16294 4.59141 7.90606C4.2836 8.64918 4.12517 9.44565 4.12517 10.25Z" stroke="currentColor" stroke-width="2" stroke-linecap="round" stroke-linejoin="round"/>
<path d="M19.875 19.875L14.625 14.625" stroke="currentColor" stroke-width="2" stroke-linecap="round" stroke-linejoin="round"/>
</svg>
