<svg viewBox="0 0 50 16" fill="none" xmlns="http://www.w3.org/2000/svg">
<g clip-path="url(#clip0_14_205)">
<path fill-rule="evenodd" clip-rule="evenodd" d="M8.12 0.4375C3.914 0.4375 0.5 3.7855 0.5 7.9105C0.5 12.0445 3.914 15.3843 8.12 15.3843C12.335 15.3843 15.74 12.0355 15.74 7.9105C15.7505 3.7855 12.335 0.4375 8.12 0.4375ZM11.6165 11.2232C11.5492 11.3297 11.4426 11.4053 11.3199 11.4337C11.1972 11.462 11.0682 11.4408 10.961 11.3748C9.167 10.3038 6.9185 10.0623 4.25975 10.6518C4.00475 10.705 3.74975 10.5542 3.69575 10.3038C3.6823 10.2441 3.68084 10.1824 3.69143 10.1221C3.70203 10.0619 3.72448 10.0044 3.75748 9.95288C3.79048 9.90139 3.83337 9.85697 3.88367 9.82219C3.93397 9.7874 3.99068 9.76295 4.0505 9.75025C6.9545 9.09775 9.44975 9.37525 11.453 10.5805C11.6892 10.714 11.762 11.0005 11.6165 11.2232ZM12.554 9.18775C12.4691 9.31991 12.3364 9.41413 12.1836 9.45075C12.0309 9.48737 11.8699 9.46354 11.7343 9.38425C9.68675 8.143 6.56375 7.786 4.142 8.509C3.82325 8.59825 3.4955 8.42875 3.404 8.125C3.38164 8.05124 3.37432 7.97375 3.38246 7.89711C3.3906 7.82047 3.41403 7.74624 3.45138 7.67882C3.48872 7.6114 3.53922 7.55216 3.59988 7.50461C3.66053 7.45706 3.73011 7.42217 3.8045 7.402C6.572 6.58 10.0145 6.973 12.3717 8.39275C12.6358 8.55325 12.7273 8.91025 12.554 9.18775ZM12.6365 7.06225C10.1772 5.635 6.12575 5.5 3.7775 6.1975C3.59748 6.25191 3.40331 6.23372 3.23652 6.14682C3.06973 6.05992 2.94356 5.91122 2.885 5.7325C2.76725 5.3665 2.9855 4.97425 3.359 4.858C6.05375 4.054 10.5327 4.21525 13.355 5.85775C13.4347 5.9036 13.5044 5.9649 13.56 6.03805C13.6156 6.1112 13.6561 6.19474 13.679 6.28374C13.7019 6.37275 13.7068 6.46544 13.6934 6.55637C13.68 6.6473 13.6486 6.73464 13.601 6.81325C13.5545 6.89348 13.4924 6.96366 13.4185 7.01973C13.3447 7.0758 13.2604 7.11663 13.1706 7.13986C13.0808 7.1631 12.9873 7.16827 12.8955 7.15507C12.8036 7.14188 12.7154 7.11058 12.6357 7.063L12.6365 7.06225ZM21.239 7.339C19.919 7.036 19.6917 6.8125 19.6917 6.3565C19.6917 5.929 20.1012 5.6425 20.7118 5.6425C21.3027 5.6425 21.8945 5.866 22.514 6.31225C22.532 6.33025 22.559 6.33025 22.5778 6.33025C22.6047 6.33025 22.6227 6.31225 22.6325 6.295L23.279 5.40175C23.2854 5.39289 23.29 5.38285 23.2925 5.37221C23.295 5.36157 23.2954 5.35054 23.2937 5.33974C23.292 5.32895 23.2881 5.3186 23.2824 5.30929C23.2766 5.29999 23.2691 5.2919 23.2603 5.2855C22.523 4.705 21.6943 4.42825 20.7297 4.42825C19.3092 4.42825 18.317 5.26825 18.317 6.4645C18.317 7.75 19.172 8.20525 20.657 8.55325C21.9132 8.839 22.1315 9.0805 22.1315 9.49975C22.1315 9.973 21.704 10.2677 21.0118 10.2677C20.2467 10.2677 19.619 10.018 18.9177 9.42025C18.8997 9.4015 18.8727 9.4015 18.854 9.4015C18.827 9.4015 18.809 9.4105 18.7992 9.4285L18.08 10.2685C18.053 10.3038 18.053 10.357 18.089 10.384C18.8907 11.0913 19.9246 11.4789 20.9938 11.473C22.523 11.473 23.5153 10.6517 23.5153 9.38425C23.4972 8.3125 22.8507 7.723 21.239 7.339ZM26.966 6.0625C26.3015 6.0625 25.7547 6.32125 25.3085 6.8485V6.259C25.3084 6.24836 25.3062 6.23785 25.302 6.22806C25.2979 6.21827 25.2918 6.20939 25.2842 6.20194C25.2767 6.19449 25.2677 6.18861 25.2578 6.18463C25.2479 6.18065 25.2374 6.17865 25.2268 6.17875H24.0522C24.0072 6.17875 23.9705 6.214 23.9705 6.259V12.8305C23.9705 12.8755 24.0072 12.9108 24.053 12.9108H25.2268C25.2718 12.9108 25.3092 12.8748 25.3092 12.8305V10.759C25.7547 11.2502 26.3015 11.491 26.966 11.491C28.1952 11.491 29.4515 10.5625 29.4515 8.77675C29.4515 7 28.1952 6.0625 26.966 6.0625ZM28.076 8.77675C28.076 9.68725 27.503 10.3127 26.693 10.3127C25.883 10.3127 25.2815 9.652 25.2815 8.77675C25.2815 7.9015 25.8913 7.24075 26.693 7.24075C27.494 7.24075 28.0768 7.88425 28.0768 8.77675H28.076ZM32.6465 6.0625C31.0625 6.0625 29.8153 7.26775 29.8153 8.79475C29.8153 10.3127 31.0535 11.5 32.6285 11.5C34.2215 11.5 35.4688 10.3038 35.4688 8.77675C35.4688 7.25875 34.2313 6.0625 32.6465 6.0625ZM32.6465 10.33C31.8005 10.33 31.163 9.661 31.163 8.78575C31.163 7.9015 31.7818 7.25875 32.6285 7.25875C33.476 7.25875 34.121 7.9285 34.121 8.81275C34.121 9.68725 33.5023 10.33 32.6465 10.33ZM38.8647 6.16975H37.5725V4.87525C37.5724 4.86455 37.5702 4.85397 37.566 4.84413C37.5618 4.83429 37.5557 4.82539 37.548 4.81792C37.5403 4.81046 37.5312 4.80459 37.5213 4.80066C37.5113 4.79673 37.5007 4.7948 37.49 4.795H36.3155C36.2705 4.795 36.2337 4.83025 36.2337 4.87525V6.17875H35.6698C35.624 6.17875 35.5872 6.214 35.5872 6.259V7.24975C35.5872 7.29475 35.624 7.33 35.6698 7.33H36.2337V9.90175C36.2337 10.9375 36.7618 11.464 37.7998 11.464C38.2183 11.464 38.5737 11.3748 38.9015 11.1962C38.9285 11.1783 38.9465 11.1512 38.9465 11.125V10.1785C38.9465 10.1515 38.9285 10.1252 38.9105 10.1073C38.8986 10.0984 38.8841 10.0936 38.8693 10.0936C38.8544 10.0936 38.8399 10.0984 38.828 10.1073C38.6143 10.2169 38.3767 10.2721 38.1365 10.2677C37.754 10.2677 37.5905 10.0982 37.5905 9.72325V7.339H38.8835C38.9285 7.339 38.9652 7.30375 38.9652 7.25875V6.259C38.9473 6.214 38.9105 6.169 38.8647 6.169V6.16975ZM43.3805 6.17875V6.0175C43.3805 5.545 43.5628 5.3395 43.973 5.3395C44.2183 5.3395 44.4185 5.3845 44.6367 5.455C44.6645 5.464 44.6915 5.455 44.7192 5.44675C44.7373 5.42875 44.7552 5.40175 44.7552 5.37475V4.402C44.7546 4.38356 44.7481 4.36582 44.7366 4.35138C44.7251 4.33694 44.7093 4.32655 44.6915 4.32175C44.3729 4.22644 44.0415 4.18115 43.709 4.1875C42.6162 4.1875 42.0425 4.786 42.0425 5.92825V6.16975H41.4778C41.4328 6.16975 41.387 6.205 41.387 6.25V7.24975C41.387 7.29475 41.423 7.33 41.4778 7.33H42.0425V11.2945C42.0425 11.3395 42.0785 11.3748 42.1243 11.3748H43.2987C43.3438 11.3748 43.3812 11.3395 43.3812 11.2945V7.339H44.4823L46.1667 11.3035C45.9755 11.7235 45.7843 11.8038 45.5293 11.8038C45.3193 11.8038 45.1017 11.7408 44.8827 11.6252C44.8647 11.6163 44.8377 11.6163 44.81 11.6163C44.792 11.6252 44.765 11.6425 44.7552 11.6613L44.3548 12.5177C44.3368 12.5627 44.3547 12.6077 44.3915 12.625C44.7755 12.8379 45.2088 12.9457 45.6478 12.9377C46.5215 12.9377 46.9948 12.5357 47.423 11.473L49.4712 6.295C49.4766 6.28182 49.4786 6.2675 49.477 6.25336C49.4755 6.23921 49.4704 6.22569 49.4622 6.214C49.4541 6.20243 49.4432 6.19312 49.4304 6.18695C49.4177 6.18078 49.4036 6.17796 49.3895 6.17875H48.1603C48.1243 6.17875 48.0875 6.205 48.0778 6.232L46.8223 9.7495L45.4745 6.232C45.4655 6.19675 45.4295 6.17875 45.392 6.17875H43.3805ZM40.7675 6.16975H39.593C39.548 6.16975 39.5112 6.205 39.5112 6.25V11.2945C39.5112 11.3395 39.548 11.3748 39.5938 11.3748H40.7675C40.8132 11.3748 40.85 11.3395 40.85 11.2945V6.259C40.85 6.214 40.8132 6.169 40.7675 6.169V6.16975ZM40.1758 3.87475C39.7115 3.87475 39.329 4.24975 39.329 4.705C39.329 5.161 39.7115 5.536 40.1765 5.536C40.64 5.536 41.0225 5.161 41.0225 4.705C41.0225 4.24975 40.6497 3.87475 40.1758 3.87475Z" fill="white"/>
</g>
<defs>
<clipPath id="clip0_14_205">
<rect width="49.5" height="15" fill="white" transform="translate(0.5 0.4375)"/>
</clipPath>
</defs>
</svg>
