<svg viewBox="0 0 40 41" fill="none" xmlns="http://www.w3.org/2000/svg">
<g clip-path="url(#clip0_21_614)">
<path d="M28.3335 6.00415C30.8672 7.46696 32.9711 9.57095 34.4339 12.1046C35.8968 14.6383 36.6668 17.5124 36.6668 20.438C36.6668 23.3636 35.8967 26.2377 34.4338 28.7714C32.971 31.305 30.867 33.409 28.3333 34.8718C25.7996 36.3346 22.9255 37.1046 19.9999 37.1046C17.0743 37.1045 14.2002 36.3344 11.6666 34.8715C9.13291 33.4086 7.02898 31.3046 5.56622 28.7709C4.10346 26.2372 3.33342 23.3631 3.3335 20.4375L3.34183 19.8975C3.43517 17.0191 4.27274 14.2141 5.7729 11.7558C7.27305 9.29752 9.38459 7.2699 11.9016 5.87062C14.4187 4.47134 17.2554 3.74814 20.1352 3.77155C23.0149 3.79495 25.8395 4.56415 28.3335 6.00415ZM24.7202 25.3458C22.5785 22.1341 17.4635 21.7925 14.0752 24.0508C13.7074 24.2961 13.4521 24.6775 13.3656 25.111C13.279 25.5446 13.3682 25.9947 13.6135 26.3625C13.8588 26.7303 14.2402 26.9855 14.6737 27.0721C15.1072 27.1587 15.5574 27.0695 15.9252 26.8242C17.9168 25.4958 20.9485 25.6992 21.9468 27.1958C22.0683 27.3779 22.2245 27.5343 22.4064 27.6561C22.5883 27.7778 22.7924 27.8625 23.007 27.9054C23.2217 27.9483 23.4427 27.9485 23.6574 27.9059C23.8722 27.8634 24.0764 27.779 24.2585 27.6575C24.4406 27.536 24.597 27.3799 24.7187 27.1979C24.8405 27.016 24.9252 26.8119 24.9681 26.5973C25.011 26.3826 25.0111 26.1616 24.9686 25.9469C24.9261 25.7322 24.8416 25.5279 24.7202 25.3458ZM26.8335 19.9375C22.7185 16.8508 17.0085 16.2925 12.4868 18.9558C12.1058 19.1804 11.8296 19.5471 11.7189 19.9753C11.6083 20.4035 11.6723 20.8581 11.8968 21.2392C12.1214 21.6202 12.4881 21.8964 12.9163 22.007C13.3445 22.1177 13.7991 22.0537 14.1802 21.8292C17.4902 19.8775 21.7535 20.2958 24.8335 22.6042C25.1871 22.8694 25.6316 22.9832 26.0692 22.9207C26.5068 22.8582 26.9016 22.6244 27.1668 22.2708C27.432 21.9172 27.5459 21.4727 27.4834 21.0351C27.4209 20.5975 27.1871 20.2027 26.8335 19.9375ZM29.2168 14.8575C23.0885 11.0275 16.2735 11.2708 10.9218 13.9475C10.5406 14.1531 10.2544 14.499 10.1238 14.9119C9.99321 15.3249 10.0285 15.7724 10.2222 16.1598C10.4159 16.5472 10.7528 16.844 11.1615 16.9873C11.5702 17.1306 12.0186 17.1091 12.4118 16.9275C16.8035 14.7325 22.4068 14.5325 27.4502 17.6841C27.825 17.9184 28.2776 17.9942 28.7083 17.8948C29.139 17.7954 29.5126 17.529 29.7468 17.1542C29.9811 16.7793 30.0569 16.3268 29.9575 15.8961C29.8581 15.4653 29.5917 15.0918 29.2168 14.8575Z" fill="white"/>
</g>
<defs>
<clipPath id="clip0_21_614">
<rect width="40" height="40" fill="white" transform="translate(0 0.4375)"/>
</clipPath>
</defs>
</svg>
