<svg viewBox="0 0 19 19" fill="none" xmlns="http://www.w3.org/2000/svg">
<path d="M4.79509 8.31827C4.68076 8.27182 4.55834 8.24859 4.43495 8.24993C4.25042 8.25043 4.07012 8.30539 3.91665 8.40793C3.76248 8.51094 3.64232 8.65736 3.57136 8.82866C3.50041 8.99997 3.48184 9.18847 3.51801 9.37033C3.55419 9.55218 3.64348 9.71923 3.77459 9.85034C3.9057 9.98145 4.07275 10.0707 4.2546 10.1069C4.43646 10.1431 4.62496 10.1245 4.79627 10.0536C4.96757 9.98261 5.11399 9.86245 5.217 9.70828C5.31955 9.55481 5.3745 9.3745 5.375 9.18997C5.37634 9.06659 5.35311 8.94417 5.30666 8.82984C5.25989 8.71471 5.19053 8.61013 5.10266 8.52227C5.0148 8.43441 4.91022 8.36504 4.79509 8.31827Z" fill="white"/>
<path d="M9.86052 8.31938C9.74535 8.27217 9.62188 8.24855 9.49742 8.24994C9.31344 8.25046 9.13366 8.30511 8.98048 8.4071C8.82659 8.50957 8.70644 8.65526 8.63513 8.82584C8.56382 8.99642 8.54454 9.18427 8.57971 9.36578C8.61488 9.54729 8.70294 9.71434 8.8328 9.84594C8.96267 9.97754 9.12854 10.0678 9.30957 10.1054C9.4906 10.1429 9.67869 10.1261 9.8502 10.0571C10.0217 9.98806 10.169 9.86985 10.2735 9.71733C10.3775 9.56552 10.4345 9.38648 10.4375 9.20252C10.4405 9.0781 10.4185 8.95432 10.3728 8.83853C10.3268 8.72194 10.2577 8.61585 10.1697 8.52664C10.0817 8.43742 9.97649 8.36693 9.86052 8.31938Z" fill="white"/>
<path d="M14.5599 8.24994C14.6844 8.24855 14.8078 8.27217 14.923 8.31938C15.039 8.36693 15.1442 8.43742 15.2322 8.52664C15.3202 8.61585 15.3893 8.72194 15.4353 8.83853C15.481 8.95432 15.503 9.07809 15.5 9.20252C15.497 9.38648 15.44 9.56552 15.336 9.71733C15.2315 9.86985 15.0842 9.98806 14.9127 10.0571C14.7412 10.1261 14.5531 10.1429 14.3721 10.1054C14.191 10.0678 14.0252 9.97754 13.8953 9.84594C13.7654 9.71434 13.6774 9.54729 13.6422 9.36578C13.607 9.18427 13.6263 8.99642 13.6976 8.82584C13.7689 8.65526 13.8891 8.50957 14.043 8.4071C14.1962 8.30511 14.3759 8.25046 14.5599 8.24994Z" fill="white"/>
</svg>
